HIERARCHY
ROOT Hips
{
  OFFSET 0 0 0
  CHANNELS 6 Xposition Yposition Zposition Zrotation Yrotation Xrotation
  JOINT LeftThigh
  {
    OFFSET 8.409438 0 -5.917753
    CHANNELS 3 Zrotation Yrotation Xrotation
    JOINT LeftLeg
    {
      OFFSET 0 0 -42.358652
      CHANNELS 3 Zrotation Yrotation Xrotation
      JOINT LeftFoot
      {
        OFFSET 0 0 -39.357303
        CHANNELS 3 Zrotation Yrotation Xrotation
      }
    }
  }
  JOINT RightThigh
  {
    OFFSET -8.409438 0 -5.917753
    CHANNELS 3 Zrotation Yrotation Xrotation
    JOINT RightLeg
    {
      OFFSET 0 0 -42.358652
      CHANNELS 3 Zrotation Yrotation Xrotation
      JOINT RightFoot
      {
        OFFSET 0 0 -39.357303
        CHANNELS 3 Zrotation Yrotation Xrotation
      }
    }
  }
  JOINT SpineLow
  {
    OFFSET 0 0 4.719101
    CHANNELS 3 Zrotation Yrotation Xrotation
    JOINT SpineMid
    {
      OFFSET 0 0 12.899191
      CHANNELS 3 Zrotation Yrotation Xrotation
      JOINT Chest
      {
        OFFSET 0 0 12.899191
        CHANNELS 3 Zrotation Yrotation Xrotation
        JOINT LeftShoulder
        {
          OFFSET 7.550562 1.41573 9.438202
          CHANNELS 3 Zrotation Yrotation Xrotation
          JOINT LeftArm
          {
            OFFSET 9.155056 0 4.247191
            CHANNELS 3 Zrotation Yrotation Xrotation
            JOINT LeftForearm
            {
              OFFSET 0 0 25.771955
              CHANNELS 3 Zrotation Yrotation Xrotation
              JOINT LeftHand
              {
                OFFSET 0 0 25.197169
                CHANNELS 3 Zrotation Yrotation Xrotation
              }
            }
          }
        }
        JOINT RightShoulder
        {
          OFFSET -7.550562 1.41573 9.438202
          CHANNELS 3 Zrotation Yrotation Xrotation
          JOINT RightArm
          {
            OFFSET -9.155056 0 4.247191
            CHANNELS 3 Zrotation Yrotation Xrotation
            JOINT RightForearm
            {
              OFFSET 0 0 -25.771955
              CHANNELS 3 Zrotation Yrotation Xrotation
              JOINT RightHand
              {
                OFFSET 0 0 -25.197169
                CHANNELS 3 Zrotation Yrotation Xrotation
              }
            }
          }
        }
        JOINT Neck
        {
          OFFSET 0 0 15.101124
          CHANNELS 3 Zrotation Yrotation Xrotation
          JOINT Head
          {
            OFFSET 0 0 11.325843
            CHANNELS 3 Zrotation Yrotation Xrotation
            End Site
            {
              OFFSET 0 0 14.157303
            }
          }
        }
      }
    }
  }
}
MOTION
Frames: 8
Frame Time: 0.01
0.0  101.685394  0.0  -0.423057  33.837051  -102.212931  12.075926  -18.188657  -1.781863  -13.202493  10.022132  25.25446  2.688103  2.011073  3.738771  -24.582945  19.180065  4.759615  -9.770015  3.688324  17.155262  5.731037  4.672785  -1.478129  -0.567217  1.020295  1.387862  -1.49211  2.820206  3.771506  -1.49211  2.820206  3.771506  -4.991216  17.72629  31.400699  137.048228  81.161585  -141.49594  -47.258832  25.14748  78.888765  82.929248  10.494835  10.025454  15.224477  -21.135043  16.008123  129.583406  64.700685  50.90003  -17.55578  -31.923856  -116.727288  89.090286  3.213758  40.039906  -1.910474  -5.384286  -1.15347  -1.441994  -4.034676  -0.88135  
0.0  101.685394  0.0  -0.485579  33.917289  -102.1951  11.726171  -18.201128  -1.930392  -13.087423  10.044635  25.402362  2.809929  2.012165  3.808577  -24.753762  19.082194  4.739683  -9.750663  3.730526  17.174863  5.741864  4.64611  -1.489839  -0.581399  1.016723  1.383022  -1.53129  2.811143  3.757734  -1.53129  2.811143  3.757734  -4.668156  17.728409  31.029576  135.45864  80.853273  -143.078941  -47.049003  24.468934  79.124719  82.988618  10.492429  9.088327  15.36714  -20.993081  16.269467  129.458354  65.088932  50.655745  -17.237729  -31.30263  -116.844349  88.521518  1.961183  40.54435  -1.790426  -5.329757  -1.040908  -1.350954  -3.994326  -0.795779  
0.0  101.685394  0.0  -0.557794  34.042316  -102.174527  11.422834  -18.245101  -2.147622  -13.040219  10.03348  25.523933  2.906958  2.077561  3.944554  -25.191054  19.069826  4.572313  -9.695904  3.741214  17.274705  5.853718  4.648244  -1.497047  -0.623719  1.020633  1.389968  -1.646473  2.824387  3.774827  -1.646473  2.824387  3.774827  -4.472252  17.574745  30.481666  133.718771  80.52355  -144.826861  -46.969121  23.338627  79.33153  82.667156  10.405048  8.11644  15.736725  -20.949847  16.464572  129.382155  65.399356  50.581589  -17.943327  -29.473798  -115.948627  87.072154  1.063115  41.265144  -1.670093  -5.259235  -0.977232  -1.260123  -3.941805  -0.746823  
0.0  101.685394  0.0  -0.634106  34.104403  -102.188142  11.161355  -18.291844  -2.330798  -12.892289  10.049916  25.793435  2.888224  2.106488  3.980601  -25.297322  18.971381  4.531055  -9.693056  3.775012  17.418253  5.86429  4.650954  -1.512436  -0.663144  1.020103  1.407834  -1.753517  2.82564  3.822  -1.753517  2.82564  3.822  -4.282539  17.496921  29.966987  132.863171  80.292808  -145.840175  -46.777011  22.102016  79.577925  81.720721  10.171052  7.318684  15.95171  -20.829033  16.582788  129.295111  65.570283  50.268662  -18.169116  -27.808353  -115.682174  86.269005  -0.212226  42.641157  -1.489088  -5.233897  -0.938184  -1.124096  -3.923178  -0.715937  
0.0  101.685394  0.0  -0.71044  34.234058  -102.18773  10.849902  -18.363862  -2.63179  -12.911255  10.170063  26.031547  3.020791  2.165035  4.113706  -25.814184  18.95781  4.251515  -9.736072  3.801515  17.637667  6.095298  4.71911  -1.496626  -0.701825  1.023732  1.433725  -1.85794  2.83849  3.891044  -1.85794  2.83849  3.891044  -4.238739  17.358556  29.455398  132.807142  80.156378  -145.954531  -46.600516  20.840629  79.669879  80.262576  9.758351  6.783903  16.228353  -20.782795  16.636676  129.291665  65.532317  50.029961  -18.954326  -25.976003  -114.851711  85.227556  -1.094693  43.898443  -1.42557  -5.200344  -0.930053  -1.076379  -3.898126  -0.709225  
0.0  101.685394  0.0  -0.810112  34.273211  -102.250487  10.614909  -18.497202  -2.885531  -12.864533  10.361751  26.425217  3.095708  2.192224  4.142629  -25.799289  18.829491  4.197925  -9.721906  3.845301  17.905631  6.037416  4.767202  -1.483868  -0.745232  1.017948  1.454326  -1.97605  2.82583  3.945651  -1.97605  2.82583  3.94565  -3.979783  17.283503  29.070633  133.397211  80.089687  -145.429919  -46.270553  19.785688  79.767227  78.518387  9.250315  6.558295  16.472722  -20.657656  16.727318  129.172964  65.471051  49.624207  -19.684515  -24.370831  -113.962497  83.900902  -1.498216  44.975801  -1.276486  -5.186608  -0.881992  -0.964215  -3.888145  -0.671905  
0.0  101.685394  0.0  -0.913128  34.46156  -102.31081  10.269041  -18.711484  -3.333162  -13.019821  10.74432  26.846342  3.283142  2.283606  4.235689  -26.249258  18.773274  3.90673  -9.75637  3.896712  18.250763  6.231276  4.881926  -1.436202  -0.790946  1.008392  1.482346  -2.100375  2.803306  4.020571  -2.100375  2.803306  4.020571  -3.88156  17.269043  28.695245  132.662839  80.310814  -145.728687  -46.317903  18.569883  79.565305  76.87853  8.791933  6.584433  16.622246  -20.517598  16.777176  129.072533  65.364914  49.239275  -20.249685  -23.081497  -113.045288  82.721547  -1.516498  46.024153  -1.26307  -5.136841  -0.857645  -0.953895  -3.850889  -0.653446  
0.0  101.685394  0.0  -1.068679  34.541699  -102.476181  9.996673  -18.965308  -3.634711  -13.04674  11.095058  27.39194  3.440735  2.353404  4.240221  -26.140407  18.613975  3.871599  -9.784804  3.951628  18.675426  6.154013  4.99651  -1.419503  -0.839208  0.996447  1.516755  -2.231553  2.774727  4.112956  -2.231553  2.774727  4.112956  -3.640839  17.270854  28.394039  132.882798  80.51628  -145.561987  -46.008657  17.867924  79.734293  75.672851  8.395437  6.796353  16.817485  -20.357819  16.855988  128.804665  65.379556  48.723547  -20.582158  -22.162297  -112.021934  81.273286  -1.030978  46.720342  -1.163614  -5.136588  -0.82407  -0.879069  -3.850898  -0.627443  
